<mxfile host="65bd71144e">
    <diagram id="dgb7nIoSoP24Rl5fJk_6" name="Page-1">
        <mxGraphModel dx="1274" dy="837" grid="1" gridSize="10" guides="1" tooltips="1" connect="1" arrows="1" fold="1" page="1" pageScale="1" pageWidth="1169" pageHeight="827" background="none" math="0" shadow="0">
            <root>
                <mxCell id="0"/>
                <mxCell id="1" parent="0"/>
                <mxCell id="39" value="" style="rounded=0;whiteSpace=wrap;html=1;fillStyle=auto;strokeColor=#006EAF;opacity=25;dashed=1;dashPattern=8 8;fillColor=#1ba1e2;fontColor=#ffffff;" parent="1" vertex="1">
                    <mxGeometry x="180" y="20" width="280" height="440" as="geometry"/>
                </mxCell>
                <mxCell id="2" value=".c source&lt;br&gt;files" style="rounded=0;whiteSpace=wrap;html=1;" parent="1" vertex="1">
                    <mxGeometry x="200" y="40" width="80" height="40" as="geometry"/>
                </mxCell>
                <mxCell id="4" value="" style="endArrow=classic;html=1;exitX=0.5;exitY=1;exitDx=0;exitDy=0;flowAnimation=1;entryX=0.5;entryY=0;entryDx=0;entryDy=0;" parent="1" source="2" target="9" edge="1">
                    <mxGeometry width="50" height="50" relative="1" as="geometry">
                        <mxPoint x="310" y="199" as="sourcePoint"/>
                        <mxPoint x="240" y="120" as="targetPoint"/>
                    </mxGeometry>
                </mxCell>
                <mxCell id="9" value="cc" style="rounded=1;whiteSpace=wrap;html=1;glass=0;shadow=0;" parent="1" vertex="1">
                    <mxGeometry x="210" y="130" width="60" height="20" as="geometry"/>
                </mxCell>
                <mxCell id="10" value="" style="endArrow=classic;html=1;exitX=0.5;exitY=1;exitDx=0;exitDy=0;flowAnimation=1;entryX=0.5;entryY=0;entryDx=0;entryDy=0;" parent="1" edge="1">
                    <mxGeometry width="50" height="50" relative="1" as="geometry">
                        <mxPoint x="239.8" y="150" as="sourcePoint"/>
                        <mxPoint x="239.8" y="200" as="targetPoint"/>
                    </mxGeometry>
                </mxCell>
                <mxCell id="11" value="lib.a" style="rounded=0;whiteSpace=wrap;html=1;" parent="1" vertex="1">
                    <mxGeometry x="200" y="200" width="80" height="40" as="geometry"/>
                </mxCell>
                <mxCell id="12" value=".h header&lt;br&gt;files" style="rounded=0;whiteSpace=wrap;html=1;" parent="1" vertex="1">
                    <mxGeometry x="360" y="40" width="80" height="40" as="geometry"/>
                </mxCell>
                <mxCell id="13" value="" style="endArrow=classic;html=1;exitX=0.5;exitY=1;exitDx=0;exitDy=0;flowAnimation=1;entryX=0.5;entryY=0;entryDx=0;entryDy=0;" parent="1" source="12" target="14" edge="1">
                    <mxGeometry width="50" height="50" relative="1" as="geometry">
                        <mxPoint x="470" y="199" as="sourcePoint"/>
                        <mxPoint x="400" y="120" as="targetPoint"/>
                    </mxGeometry>
                </mxCell>
                <mxCell id="14" value="bindgen" style="rounded=1;whiteSpace=wrap;html=1;glass=0;shadow=0;" parent="1" vertex="1">
                    <mxGeometry x="370" y="130" width="60" height="20" as="geometry"/>
                </mxCell>
                <mxCell id="15" value="" style="endArrow=classic;html=1;exitX=0.5;exitY=1;exitDx=0;exitDy=0;flowAnimation=1;entryX=0.5;entryY=0;entryDx=0;entryDy=0;" parent="1" edge="1">
                    <mxGeometry width="50" height="50" relative="1" as="geometry">
                        <mxPoint x="399.79999999999995" y="150" as="sourcePoint"/>
                        <mxPoint x="399.79999999999995" y="200" as="targetPoint"/>
                    </mxGeometry>
                </mxCell>
                <mxCell id="16" value="bindings.rs" style="rounded=0;whiteSpace=wrap;html=1;" parent="1" vertex="1">
                    <mxGeometry x="360" y="200" width="80" height="40" as="geometry"/>
                </mxCell>
                <mxCell id="17" value="" style="endArrow=classic;html=1;exitX=0.5;exitY=1;exitDx=0;exitDy=0;snapToPoint=0;flowAnimation=1;ignoreEdge=0;orthogonalLoop=0;orthogonal=0;enumerate=0;comic=0;arcSize=20;rounded=0;" parent="1" source="16" edge="1">
                    <mxGeometry width="50" height="50" relative="1" as="geometry">
                        <mxPoint x="380" y="280" as="sourcePoint"/>
                        <mxPoint x="360" y="320" as="targetPoint"/>
                        <Array as="points">
                            <mxPoint x="400" y="280"/>
                            <mxPoint x="370" y="280"/>
                            <mxPoint x="360" y="280"/>
                        </Array>
                    </mxGeometry>
                </mxCell>
                <mxCell id="19" value="" style="endArrow=classic;html=1;rounded=0;comic=0;exitX=0.5;exitY=1;exitDx=0;exitDy=0;flowAnimation=1;" parent="1" source="11" edge="1">
                    <mxGeometry width="50" height="50" relative="1" as="geometry">
                        <mxPoint x="310" y="270" as="sourcePoint"/>
                        <mxPoint x="280" y="320" as="targetPoint"/>
                        <Array as="points">
                            <mxPoint x="240" y="280"/>
                            <mxPoint x="280" y="280"/>
                        </Array>
                    </mxGeometry>
                </mxCell>
                <mxCell id="20" value="linker" style="rounded=1;whiteSpace=wrap;html=1;glass=0;shadow=0;dashed=1;dashPattern=8 8;" parent="1" vertex="1">
                    <mxGeometry x="200" y="320" width="240" height="40" as="geometry"/>
                </mxCell>
                <mxCell id="21" value="" style="endArrow=classic;html=1;rounded=0;comic=0;exitX=0.5;exitY=1;exitDx=0;exitDy=0;ignoreEdge=0;flowAnimation=1;" parent="1" source="20" edge="1">
                    <mxGeometry width="50" height="50" relative="1" as="geometry">
                        <mxPoint x="270" y="330" as="sourcePoint"/>
                        <mxPoint x="320" y="400" as="targetPoint"/>
                    </mxGeometry>
                </mxCell>
                <mxCell id="22" value="sys crate" style="rounded=0;whiteSpace=wrap;html=1;shadow=0;glass=0;" parent="1" vertex="1">
                    <mxGeometry x="280" y="400" width="80" height="40" as="geometry"/>
                </mxCell>
                <mxCell id="28" value="" style="endArrow=classic;html=1;entryX=0.5;entryY=0;entryDx=0;entryDy=0;flowAnimation=1;exitX=0.5;exitY=1;exitDx=0;exitDy=0;" parent="1" source="22" target="29" edge="1">
                    <mxGeometry width="50" height="50" relative="1" as="geometry">
                        <mxPoint x="360" y="419.58" as="sourcePoint"/>
                        <mxPoint x="520" y="420" as="targetPoint"/>
                    </mxGeometry>
                </mxCell>
                <mxCell id="29" value="optional HAL wrapper crate" style="rounded=1;whiteSpace=wrap;html=1;dashed=1;fillStyle=auto;gradientColor=none;strokeColor=#FFFFFF;backgroundOutline=0;treeMoving=0;treeFolding=0;portConstraintRotation=0;dashPattern=8 8;" parent="1" vertex="1">
                    <mxGeometry x="280" y="480" width="80" height="40" as="geometry"/>
                </mxCell>
                <mxCell id="30" value="binary&lt;br&gt;crate" style="rounded=0;whiteSpace=wrap;html=1;fillStyle=auto;gradientColor=none;strokeColor=#FFFFFF;" parent="1" vertex="1">
                    <mxGeometry x="360" y="600" width="160" height="40" as="geometry"/>
                </mxCell>
                <mxCell id="34" value="" style="endArrow=classic;html=1;strokeColor=#FFFFFF;exitX=0.5;exitY=1;exitDx=0;exitDy=0;entryX=0.25;entryY=0;entryDx=0;entryDy=0;rounded=0;flowAnimation=1;" parent="1" source="29" target="30" edge="1">
                    <mxGeometry width="50" height="50" relative="1" as="geometry">
                        <mxPoint x="420" y="510" as="sourcePoint"/>
                        <mxPoint x="470" y="460" as="targetPoint"/>
                        <Array as="points">
                            <mxPoint x="320" y="560"/>
                            <mxPoint x="400" y="560"/>
                        </Array>
                    </mxGeometry>
                </mxCell>
                <mxCell id="36" value="" style="endArrow=classic;html=1;rounded=0;strokeColor=#FFFFFF;entryX=0.75;entryY=0;entryDx=0;entryDy=0;flowAnimation=1;" parent="1" target="30" edge="1">
                    <mxGeometry width="50" height="50" relative="1" as="geometry">
                        <mxPoint x="480" y="520" as="sourcePoint"/>
                        <mxPoint x="550" y="500" as="targetPoint"/>
                    </mxGeometry>
                </mxCell>
                <mxCell id="37" value="Other dependencies" style="rounded=0;whiteSpace=wrap;html=1;fillStyle=auto;strokeColor=#FFFFFF;" parent="1" vertex="1">
                    <mxGeometry x="440" y="480" width="80" height="40" as="geometry"/>
                </mxCell>
                <mxCell id="41" value="What cube does?" style="swimlane;fontStyle=0;childLayout=stackLayout;horizontal=1;startSize=40;horizontalStack=0;resizeParent=1;resizeParentMax=0;resizeLast=0;collapsible=1;marginBottom=0;whiteSpace=wrap;html=1;rounded=1;fillStyle=auto;strokeColor=#006EAF;fillColor=#1ba1e2;fontColor=#ffffff;arcSize=0;" parent="1" vertex="1">
                    <mxGeometry x="520" y="200" width="320" height="120" as="geometry">
                        <mxRectangle x="520" y="200" width="320" height="40" as="alternateBounds"/>
                    </mxGeometry>
                </mxCell>
                <mxCell id="42" value="Create a sys crate for your bindings to get generated into, including setting up dependencies&lt;br&gt;" style="text;strokeColor=none;fillColor=#1ba1e2;align=left;verticalAlign=middle;spacingLeft=4;spacingRight=4;overflow=hidden;points=[[0,0.5],[1,0.5]];portConstraint=eastwest;rotatable=0;whiteSpace=wrap;html=1;rounded=1;fillStyle=auto;opacity=25;arcSize=0;fontColor=#ffffff;" parent="41" vertex="1">
                    <mxGeometry y="40" width="320" height="40" as="geometry"/>
                </mxCell>
                <mxCell id="44" value="Generate a build.rs file with the required .c and .h files parsed and ready to go" style="text;strokeColor=none;fillColor=#1ba1e2;align=left;verticalAlign=middle;spacingLeft=4;spacingRight=4;overflow=hidden;points=[[0,0.5],[1,0.5]];portConstraint=eastwest;rotatable=0;whiteSpace=wrap;html=1;rounded=1;dashed=1;dashPattern=8 8;fillStyle=auto;opacity=25;arcSize=0;fontColor=#ffffff;" parent="41" vertex="1">
                    <mxGeometry y="80" width="320" height="40" as="geometry"/>
                </mxCell>
                <mxCell id="48" style="edgeStyle=none;rounded=0;html=1;entryX=1;entryY=0.5;entryDx=0;entryDy=0;strokeColor=#006EAF;fillColor=#1ba1e2;exitX=0;exitY=0.5;exitDx=0;exitDy=0;" parent="1" source="41" target="39" edge="1">
                    <mxGeometry relative="1" as="geometry">
                        <mxPoint x="510" y="210" as="sourcePoint"/>
                    </mxGeometry>
                </mxCell>
            </root>
        </mxGraphModel>
    </diagram>
</mxfile>